<svg width="157" height="190" viewBox="0 0 157 190" fill="none" xmlns="http://www.w3.org/2000/svg">
<g clip-path="url(#clip0_6_2)">
<rect width="157" height="190" fill="white"/>
<path d="M50.6628 31.3573L67.0805 36.4308L73.9552 38.4168C74.1939 142.949 74.2503 38.4032 74.2136 143.447L62.0593 138.574L50.6628 31.3573Z" fill="#E28B06" stroke="#E47806" stroke-width="1.07286" stroke-linecap="round" stroke-linejoin="round"/>
<path d="M76.6743 12.943L74.1851 39.0177L101.278 25.9369L82.7218 5.54231L76.6743 12.943Z" fill="#E28B06" stroke="#E47806" stroke-width="1.07286" stroke-linecap="round" stroke-linejoin="round"/>
<path d="M50.6628 31.3573L73.976 38.7317L76.6291 13.2624L69.2636 7.91826L50.6628 31.3573Z" fill="#E64706" stroke="#E47806" stroke-width="1.07286" stroke-linecap="round" stroke-linejoin="round"/>
<path d="M73.8933 38.8977C74.3523 41.7142 74.1151 143.377 74.1151 143.377C74.1151 143.377 89.8174 135.881 88.6748 134.333C87.5321 132.784 101.278 25.9351 101.278 25.9351L73.8933 38.8977Z" fill="#DFAB05" stroke="#E47806" stroke-width="1.07286" stroke-linecap="round" stroke-linejoin="round"/>
<path d="M69.2677 7.91691L82.6964 5.41926L76.6327 13.261L69.2677 7.91691Z" fill="#ED7621" stroke="#E47806" stroke-width="1.07286" stroke-linecap="round" stroke-linejoin="round"/>
<path d="M52.8049 30.1662L71.9935 35.7006L74.4531 13.8858L52.8049 30.1662Z" fill="url(#paint0_linear_6_2)"/>
<path d="M78.7124 13.4311L76.5253 35.4424L97.9567 25.2122L78.7124 13.4311Z" fill="#ED7621"/>
<path d="M52.4381 33.8352C52.4381 33.8352 72.8752 39.6474 72.0515 40.5034C71.2277 41.3595 71.7329 140.409 71.5037 139.003C71.2745 137.596 52.4381 33.8352 52.4381 33.8352Z" fill="#ED7621"/>
<path d="M76.582 40.2498L76.3398 140.624L98.9512 29.8667L76.582 40.2498Z" fill="url(#paint1_linear_6_2)"/>
<path d="M72.345 8.50768L76.2187 11.646C76.2187 11.646 79.8959 7.32789 79.6974 7.3602C77.7362 7.66834 73.2983 8.27775 72.345 8.50768Z" fill="url(#paint2_linear_6_2)"/>
<path d="M32.7524 70.8715L36.6198 85.5833L49.9664 143.522L38.6839 136.377L16.1251 80.4791L24.9196 67.337L32.7524 70.8715Z" fill="#E08606" stroke="#E17206" stroke-width="0.902295" stroke-linecap="round" stroke-linejoin="round"/>
<path d="M16.1258 80.4782L36.5399 85.5282L33.0392 71.3101L24.7765 67.0727L16.1258 80.4782Z" fill="#E24106" stroke="#E17206" stroke-width="0.902295" stroke-linecap="round" stroke-linejoin="round"/>
<path d="M32.9206 71.2937L40.6663 65.1681L50.0734 72.3991L36.54 85.5294L32.9206 71.2937Z" fill="#E08606" stroke="#E17206" stroke-width="0.902295" stroke-linecap="round" stroke-linejoin="round"/>
<path d="M36.542 85.5278L49.9687 143.521L58.0685 131.88L50.0752 72.3985L36.542 85.5278Z" fill="#DFAA05" stroke="#E17206" stroke-width="0.902295" stroke-linecap="round" stroke-linejoin="round"/>
<path d="M24.7759 67.0732L32.9197 71.2934L40.6654 65.1679L33.947 61.0485L24.7759 67.0732Z" fill="#E64706" stroke="#E17206" stroke-width="0.902295" stroke-linecap="round" stroke-linejoin="round"/>
<path d="M18.2459 82.6911C35.8828 87.5913 35.3432 88.244 35.3432 88.244L47.0378 138.849L18.2459 82.6911Z" fill="#ED7621"/>
<path d="M19.1265 78.6789C19.1265 78.6789 33.4389 83.3615 34.1916 83.2273C34.9443 83.0931 31.3766 72.2774 31.3766 72.2774L19.1265 78.6789Z" fill="#ED7621"/>
<path d="M35.0993 71.495L37.5574 82.8279L46.9417 72.0827L35.0993 71.495Z" fill="url(#paint3_linear_6_2)"/>
<path d="M38.2949 86.6206L50.6331 138.372L49.4531 75.0681L38.2949 86.6206Z" fill="url(#paint4_linear_6_2)"/>
<path d="M26.282 66.7253L38.2854 64.8277L32.8536 69.1702L26.282 66.7253Z" fill="url(#paint5_linear_6_2)"/>
<path d="M91.2605 137.848L102.095 76.4215L120.14 90.5532L97.9624 145.022L91.2605 137.848Z" fill="#E08606" stroke="#E17206" stroke-width="1.07288" stroke-linecap="round" stroke-linejoin="round"/>
<path d="M102.095 76.4216L120.14 90.5533L129.791 65.5333L126.71 53.2672L102.095 76.4216Z" fill="#E24106" stroke="#E17206" stroke-width="1.07288" stroke-linecap="round" stroke-linejoin="round"/>
<path d="M120.14 90.5495L143.142 79.1333L138.286 55.9003L129.791 65.5289L120.14 90.5495Z" fill="#E08606" stroke="#E17206" stroke-width="1.07288" stroke-linecap="round" stroke-linejoin="round"/>
<path d="M126.707 53.2635L129.788 65.5296L138.283 55.901L126.707 53.2635Z" fill="#E64706" stroke="#E17206" stroke-width="1.07288" stroke-linecap="round" stroke-linejoin="round"/>
<path d="M120.14 90.5494L97.9623 145.019L110.727 134.901L143.142 79.1301L120.14 90.5494Z" fill="#ED7621" stroke="#E17206" stroke-width="1.07288" stroke-linecap="round" stroke-linejoin="round"/>
<path d="M104.43 75.9213L119.288 86.6624L128.042 64.7044L104.43 75.9213Z" fill="#ED7621"/>
<path d="M103.294 79.7323L118.155 90.7109C118.155 90.7109 96.9635 143.934 96.9399 142.035C96.9162 140.135 103.294 79.7323 103.294 79.7323Z" fill="#ED7621"/>
<path d="M132.101 66.0744L123.096 86.8477L140.084 77.8504L132.101 66.0744Z" fill="#ED7621"/>
<path d="M122.207 91.8516C122.207 91.8516 99.7839 141.528 101.904 140.077C104.023 138.626 139.195 82.8545 139.195 82.8545L122.207 91.8516Z" fill="url(#paint6_linear_6_2)"/>
<path d="M129.367 56.1327L130.622 61.5795L134.134 57.4987L129.367 56.1327Z" fill="url(#paint7_linear_6_2)"/>
<path d="M59.9748 150.889L47.4928 122.997L58.6944 123.772L64.6641 151.958L59.9748 150.889Z" fill="#E08606" stroke="#E17206" stroke-width="0.5256" stroke-linecap="round" stroke-linejoin="round"/>
<path d="M47.4927 122.997L58.6944 123.772L55.7349 110.972L51.1152 106.843L47.4927 122.997Z" fill="#E24106" stroke="#E17206" stroke-width="0.5256" stroke-linecap="round" stroke-linejoin="round"/>
<path d="M58.6933 123.77L64.8866 112.82L56.5339 104.731L55.7337 110.97L58.6933 123.77Z" fill="#E08606" stroke="#E17206" stroke-width="0.5256" stroke-linecap="round" stroke-linejoin="round"/>
<path d="M51.113 106.842L55.7327 110.971L56.5328 104.732L51.113 106.842Z" fill="#E64706" stroke="#E17206" stroke-width="0.5256" stroke-linecap="round" stroke-linejoin="round"/>
<path d="M58.6933 123.77L64.6631 151.956L67.0608 144.345L64.8857 112.819L58.6933 123.77Z" fill="#ED7621" stroke="#E17206" stroke-width="0.5256" stroke-linecap="round" stroke-linejoin="round"/>
<path d="M48.3075 122.162L57.2847 122.437L54.8026 111.126L48.3075 122.162Z" fill="#ED7621"/>
<path d="M48.8874 124.02L57.931 124.39C57.931 124.39 63.9579 151.8 63.4265 151.036C62.8951 150.273 48.8874 124.02 48.8874 124.02Z" fill="#ED7621"/>
<path d="M56.8171 110.563L58.8716 121.463L63.2903 113.147L56.8171 110.563Z" fill="#ED7621"/>
<path d="M59.8824 123.736C59.8824 123.736 64.4353 150.045 64.8963 148.874C65.3573 147.704 64.3011 115.419 64.3011 115.419L59.8824 123.736Z" fill="url(#paint8_linear_6_2)"/>
<path d="M52.9825 107.285L54.9878 109.149L55.2911 106.529L52.9825 107.285Z" fill="url(#paint9_linear_6_2)"/>
<path d="M94.5135 105.07L92.2922 114.144L82.4072 149.207L77.8128 141.441L81.5085 104.155L90.8825 100.424L94.5135 105.07Z" fill="#E08606" stroke="#E17206" stroke-width="0.588655" stroke-linecap="round" stroke-linejoin="round"/>
<path d="M81.5093 104.155L92.2611 114.087L94.5508 105.402L90.878 100.235L81.5093 104.155Z" fill="#E24106" stroke="#E17206" stroke-width="0.588655" stroke-linecap="round" stroke-linejoin="round"/>
<path d="M94.4844 105.351L101.053 104.914L104.49 112.055L92.2608 114.087L94.4844 105.351Z" fill="#E08606" stroke="#E17206" stroke-width="0.588655" stroke-linecap="round" stroke-linejoin="round"/>
<path d="M92.2625 114.087L82.409 149.208L90.8991 146.014L104.491 112.056L92.2625 114.087Z" fill="#DFAA05" stroke="#E17206" stroke-width="0.588655" stroke-linecap="round" stroke-linejoin="round"/>
<path d="M90.8775 100.235L94.4839 105.351L101.053 104.914L98.2752 100.36L90.8775 100.235Z" fill="#E64706" stroke="#E17206" stroke-width="0.588655" stroke-linecap="round" stroke-linejoin="round"/>
<path d="M82.1091 106.078C91.2318 114.939 90.7043 115.088 90.7043 115.088L82.0933 145.726L82.1091 106.078Z" fill="#ED7621"/>
<path d="M83.8844 104.291C83.8844 104.291 91.0689 111.851 91.5648 112.05C92.0606 112.248 93.2564 105.318 93.2564 105.318L83.8844 104.291Z" fill="#ED7621"/>
<path d="M95.7433 106.232L93.7178 113.036L102.706 110.768L95.7433 106.232Z" fill="#ED7621"/>
<path d="M92.9975 115.286L84.42 146.753L103.306 113.23L92.9975 115.286Z" fill="url(#paint10_linear_6_2)"/>
<path d="M91.9087 100.598L99.7375 103.893L95.1163 104.223L91.9087 100.598Z" fill="url(#paint11_linear_6_2)"/>
<path d="M27.6476 161.771C30.1436 161.771 32.1809 162.005 33.7596 162.475C35.3596 162.944 36.5969 163.829 37.4716 165.131C38.3676 166.432 38.8156 168.299 38.8156 170.731C38.8156 173.333 38.3463 175.317 37.4076 176.683C36.4689 178.027 35.2103 178.923 33.6316 179.371C32.0529 179.797 30.0582 180.011 27.6476 180.011H21.2476V161.771H27.6476ZM31.9356 175.659C32.1916 175.403 32.3729 174.741 32.4796 173.675C32.5863 172.608 32.6396 171.627 32.6396 170.731C32.6396 169.6 32.5543 168.704 32.3836 168.043C32.2343 167.36 31.9569 166.816 31.5516 166.411C30.9116 165.707 29.8129 165.355 28.2556 165.355C27.9783 165.355 27.5622 165.376 27.0076 165.419V176.043C27.3702 176.085 27.9356 176.107 28.7036 176.107C29.4929 176.107 30.1863 176.075 30.7836 176.011C31.4022 175.925 31.7862 175.808 31.9356 175.659ZM48.1886 180.427C45.6286 180.427 43.7086 179.829 42.4286 178.635C41.1699 177.419 40.5406 175.509 40.5406 172.907C40.5406 171.477 40.6686 170.229 40.9246 169.163C41.2019 168.075 41.5326 167.317 41.9166 166.891C42.4072 166.336 43.3032 165.877 44.6046 165.515C45.9273 165.152 47.1646 164.971 48.3166 164.971C51.0686 164.971 53.0313 165.557 54.2046 166.731C55.3779 167.904 55.9646 169.781 55.9646 172.363C55.9646 175.136 55.3353 177.173 54.0766 178.475C52.8179 179.776 50.8553 180.427 48.1886 180.427ZM48.2846 176.683C49.1166 176.683 49.6606 176.395 49.9166 175.819C50.1726 175.221 50.3006 174.176 50.3006 172.683C50.3006 171.637 50.2473 170.837 50.1406 170.283C50.0339 169.707 49.8312 169.291 49.5326 169.035C49.2553 168.757 48.8179 168.619 48.2206 168.619C47.3672 168.619 46.8766 168.693 46.7486 168.843C46.5779 168.992 46.4392 169.461 46.3326 170.251C46.2259 171.04 46.1726 171.861 46.1726 172.715C46.1726 174.165 46.3112 175.189 46.5886 175.787C46.8873 176.384 47.4526 176.683 48.2846 176.683ZM66.7968 180.011H59.8848L56.6208 165.291H62.2208L63.6608 176.235H63.7568L65.3888 165.291H71.3088L73.0368 176.203H73.1648L74.5088 165.291H80.1408L76.8768 180.011H69.9328L68.3968 171.115H68.3008L66.7968 180.011ZM95.8871 166.219C96.0791 166.453 96.2178 167.04 96.3031 167.979C96.4097 168.917 96.4631 170.347 96.4631 172.267V180.011H90.9911V172.331V171.019C90.9911 170.336 90.9377 169.909 90.8311 169.739C90.6604 169.525 90.2658 169.419 89.6471 169.419C89.3484 169.419 89.1244 169.429 88.9751 169.451C88.3778 169.472 87.7591 169.611 87.1191 169.867V180.011H81.6471V165.291H86.0951L86.7031 167.755C88.2391 165.899 90.0738 164.971 92.2071 164.971C92.9751 164.971 93.6898 165.077 94.3511 165.291C95.0338 165.504 95.5458 165.813 95.8871 166.219ZM101.839 163.467C101.113 163.467 100.484 163.221 99.9508 162.731C99.4388 162.24 99.1828 161.653 99.1828 160.971C99.1828 160.288 99.4388 159.701 99.9508 159.211C100.484 158.72 101.113 158.475 101.839 158.475C102.564 158.475 103.183 158.72 103.695 159.211C104.207 159.701 104.463 160.288 104.463 160.971C104.463 161.653 104.207 162.24 103.695 162.731C103.183 163.221 102.564 163.467 101.839 163.467ZM99.0868 165.291H104.559V180.011H99.0868V165.291ZM114.056 173.963C114.056 174.347 114.067 174.752 114.088 175.179C114.109 175.584 114.173 175.84 114.28 175.947C114.429 176.096 114.952 176.171 115.848 176.171L116.936 176.139C117.128 177.163 117.224 178.347 117.224 179.691C116.819 179.84 116.221 179.979 115.432 180.107C114.664 180.235 113.928 180.299 113.224 180.299C111.752 180.299 110.611 179.979 109.8 179.339C109.011 178.677 108.616 177.664 108.616 176.299V168.427H106.216V165.515L108.616 165.291L110.056 161.771L114.056 161.547V165.291H117.448V168.427H114.056V173.963ZM128.013 176.171C128.546 176.171 129.538 176.117 130.989 176.011C131.181 176.011 131.533 175.989 132.045 175.947L132.525 179.243C130.882 180.011 128.749 180.395 126.125 180.395C123.671 180.395 121.783 179.776 120.461 178.539C119.159 177.301 118.509 175.435 118.509 172.939C118.509 171.659 118.669 170.421 118.989 169.227C119.33 168.032 119.714 167.2 120.141 166.731C120.589 166.261 121.421 165.856 122.637 165.515C123.853 165.173 125.058 165.003 126.253 165.003C128.173 165.003 129.613 165.344 130.573 166.027C131.533 166.709 132.162 167.659 132.461 168.875C132.759 170.069 132.909 171.68 132.909 173.707C131.458 173.792 130.039 173.835 128.653 173.835H124.109C124.109 174.517 124.247 175.029 124.525 175.371C124.823 175.712 125.239 175.936 125.773 176.043C126.306 176.128 127.053 176.171 128.013 176.171ZM124.429 168.811C124.301 168.875 124.205 169.152 124.141 169.643C124.077 170.133 124.034 170.688 124.013 171.307H125.677C126.679 171.307 127.405 171.296 127.853 171.275C127.853 170.251 127.703 169.525 127.405 169.099C127.127 168.672 126.637 168.459 125.933 168.459C125.357 168.459 124.855 168.576 124.429 168.811Z" fill="#2D2D2D"/>
</g>
<defs>
<linearGradient id="paint0_linear_6_2" x1="68.646" y1="44.6323" x2="59.6521" y2="24.7978" gradientUnits="userSpaceOnUse">
<stop stop-color="#F8190E"/>
<stop offset="1" stop-color="#F8190E" stop-opacity="0"/>
</linearGradient>
<linearGradient id="paint1_linear_6_2" x1="-3.442" y1="83.5732" x2="90.5748" y2="100.845" gradientUnits="userSpaceOnUse">
<stop stop-color="#F8190E"/>
<stop offset="1" stop-color="#F8190E" stop-opacity="0"/>
</linearGradient>
<linearGradient id="paint2_linear_6_2" x1="75.5929" y1="11.8892" x2="76.4233" y2="7.57965" gradientUnits="userSpaceOnUse">
<stop stop-color="#F81009"/>
<stop offset="1" stop-color="#F8190E"/>
</linearGradient>
<linearGradient id="paint3_linear_6_2" x1="34.0106" y1="93.3209" x2="42.086" y2="71.069" gradientUnits="userSpaceOnUse">
<stop stop-color="#F81009"/>
<stop offset="1" stop-color="#F81009" stop-opacity="0"/>
</linearGradient>
<linearGradient id="paint4_linear_6_2" x1="7.04511" y1="93.6998" x2="50.5327" y2="93.2403" gradientUnits="userSpaceOnUse">
<stop stop-color="#F81009"/>
<stop offset="1" stop-color="#F81009" stop-opacity="0"/>
</linearGradient>
<linearGradient id="paint5_linear_6_2" x1="33.8854" y1="69.9495" x2="33.6178" y2="64.1863" gradientUnits="userSpaceOnUse">
<stop stop-color="#F81009"/>
<stop offset="1" stop-color="#F81009" stop-opacity="0"/>
</linearGradient>
<linearGradient id="paint6_linear_6_2" x1="96.373" y1="90.704" x2="124.473" y2="110.598" gradientUnits="userSpaceOnUse">
<stop stop-color="#F81009"/>
<stop offset="1" stop-color="#F81009" stop-opacity="0"/>
</linearGradient>
<linearGradient id="paint7_linear_6_2" x1="130.799" y1="62.521" x2="132.257" y2="56.7198" gradientUnits="userSpaceOnUse">
<stop stop-color="#F81009"/>
<stop offset="1" stop-color="#F81009" stop-opacity="0"/>
</linearGradient>
<linearGradient id="paint8_linear_6_2" x1="49.098" y1="130.365" x2="65.9613" y2="130.714" gradientUnits="userSpaceOnUse">
<stop stop-color="#F81009"/>
<stop offset="1" stop-color="#F81009" stop-opacity="0"/>
</linearGradient>
<linearGradient id="paint9_linear_6_2" x1="55.3186" y1="109.476" x2="54.3158" y2="106.722" gradientUnits="userSpaceOnUse">
<stop stop-color="#F81009"/>
<stop offset="1" stop-color="#F81009" stop-opacity="0"/>
</linearGradient>
<linearGradient id="paint10_linear_6_2" x1="71.9451" y1="107.834" x2="98.3681" y2="123.046" gradientUnits="userSpaceOnUse">
<stop stop-color="#F81009"/>
<stop offset="1" stop-color="#F81009" stop-opacity="0"/>
</linearGradient>
<linearGradient id="paint11_linear_6_2" x1="95.5002" y1="104.991" x2="97.164" y2="101.904" gradientUnits="userSpaceOnUse">
<stop stop-color="#F81009"/>
<stop offset="1" stop-color="#F81009" stop-opacity="0"/>
</linearGradient>
<clipPath id="clip0_6_2">
<rect width="157" height="190" fill="white"/>
</clipPath>
</defs>
</svg>
