<svg width="130" height="151" viewBox="0 0 130 151" fill="none" xmlns="http://www.w3.org/2000/svg">
<path d="M36.6628 28.3573L53.0805 33.4308L59.9552 35.4168C60.1939 139.949 60.2503 35.4032 60.2136 140.447L48.0593 135.574L36.6628 28.3573Z" fill="#E28B06" stroke="#E47806" stroke-width="1.07286" stroke-linecap="round" stroke-linejoin="round"/>
<path d="M62.6743 9.94299L60.1851 36.0177L87.278 22.9369L68.7218 2.54231L62.6743 9.94299Z" fill="#E28B06" stroke="#E47806" stroke-width="1.07286" stroke-linecap="round" stroke-linejoin="round"/>
<path d="M36.6628 28.3573L59.976 35.7317L62.6291 10.2624L55.2636 4.91826L36.6628 28.3573Z" fill="#E64706" stroke="#E47806" stroke-width="1.07286" stroke-linecap="round" stroke-linejoin="round"/>
<path d="M59.8933 35.8977C60.3523 38.7142 60.1151 140.377 60.1151 140.377C60.1151 140.377 75.8174 132.881 74.6748 131.333C73.5321 129.784 87.2782 22.9351 87.2782 22.9351L59.8933 35.8977Z" fill="#DFAB05" stroke="#E47806" stroke-width="1.07286" stroke-linecap="round" stroke-linejoin="round"/>
<path d="M55.2677 4.91691L68.6964 2.41926L62.6327 10.261L55.2677 4.91691Z" fill="#ED7621" stroke="#E47806" stroke-width="1.07286" stroke-linecap="round" stroke-linejoin="round"/>
<path d="M38.8049 27.1662L57.9935 32.7006L60.4531 10.8858L38.8049 27.1662Z" fill="url(#paint0_linear_6_65)"/>
<path d="M64.7124 10.4311L62.5253 32.4424L83.9567 22.2122L64.7124 10.4311Z" fill="#ED7621"/>
<path d="M38.4381 30.8352C38.4381 30.8352 58.8752 36.6474 58.0515 37.5034C57.2277 38.3595 57.7329 137.409 57.5037 136.003C57.2745 134.596 38.4381 30.8352 38.4381 30.8352Z" fill="#ED7621"/>
<path d="M62.582 37.2498L62.3398 137.624L84.9512 26.8667L62.582 37.2498Z" fill="url(#paint1_linear_6_65)"/>
<path d="M58.345 5.50768L62.2187 8.64601C62.2187 8.64601 65.8959 4.32789 65.6974 4.3602C63.7362 4.66834 59.2983 5.27775 58.345 5.50768Z" fill="url(#paint2_linear_6_65)"/>
<path d="M18.7524 67.8715L22.6198 82.5833L35.9664 140.522L24.6839 133.377L2.12513 77.4791L10.9196 64.337L18.7524 67.8715Z" fill="#E08606" stroke="#E17206" stroke-width="0.902295" stroke-linecap="round" stroke-linejoin="round"/>
<path d="M2.12577 77.4782L22.5399 82.5282L19.0392 68.3101L10.7765 64.0727L2.12577 77.4782Z" fill="#E24106" stroke="#E17206" stroke-width="0.902295" stroke-linecap="round" stroke-linejoin="round"/>
<path d="M18.9206 68.2937L26.6663 62.1681L36.0734 69.3991L22.54 82.5294L18.9206 68.2937Z" fill="#E08606" stroke="#E17206" stroke-width="0.902295" stroke-linecap="round" stroke-linejoin="round"/>
<path d="M22.542 82.5278L35.9687 140.521L44.0685 128.88L36.0752 69.3985L22.542 82.5278Z" fill="#DFAA05" stroke="#E17206" stroke-width="0.902295" stroke-linecap="round" stroke-linejoin="round"/>
<path d="M10.7759 64.0732L18.9197 68.2934L26.6654 62.1679L19.947 58.0485L10.7759 64.0732Z" fill="#E64706" stroke="#E17206" stroke-width="0.902295" stroke-linecap="round" stroke-linejoin="round"/>
<path d="M4.24591 79.6911C21.8828 84.5913 21.3432 85.244 21.3432 85.244L33.0378 135.849L4.24591 79.6911Z" fill="#ED7621"/>
<path d="M5.12646 75.6789C5.12646 75.6789 19.4389 80.3615 20.1916 80.2273C20.9443 80.0931 17.3766 69.2774 17.3766 69.2774L5.12646 75.6789Z" fill="#ED7621"/>
<path d="M21.0993 68.495L23.5574 79.8279L32.9417 69.0827L21.0993 68.495Z" fill="url(#paint3_linear_6_65)"/>
<path d="M24.2949 83.6206L36.6331 135.372L35.4531 72.0681L24.2949 83.6206Z" fill="url(#paint4_linear_6_65)"/>
<path d="M12.282 63.7253L24.2854 61.8277L18.8536 66.1702L12.282 63.7253Z" fill="url(#paint5_linear_6_65)"/>
<path d="M77.2605 134.848L88.0949 73.4215L106.14 87.5532L83.9624 142.022L77.2605 134.848Z" fill="#E08606" stroke="#E17206" stroke-width="1.07288" stroke-linecap="round" stroke-linejoin="round"/>
<path d="M88.0948 73.4216L106.14 87.5533L115.791 62.5333L112.71 50.2672L88.0948 73.4216Z" fill="#E24106" stroke="#E17206" stroke-width="1.07288" stroke-linecap="round" stroke-linejoin="round"/>
<path d="M106.14 87.5495L129.142 76.1333L124.286 52.9003L115.791 62.5289L106.14 87.5495Z" fill="#E08606" stroke="#E17206" stroke-width="1.07288" stroke-linecap="round" stroke-linejoin="round"/>
<path d="M112.707 50.2635L115.788 62.5296L124.283 52.901L112.707 50.2635Z" fill="#E64706" stroke="#E17206" stroke-width="1.07288" stroke-linecap="round" stroke-linejoin="round"/>
<path d="M106.14 87.5494L83.9623 142.019L96.7273 131.901L129.142 76.1301L106.14 87.5494Z" fill="#ED7621" stroke="#E17206" stroke-width="1.07288" stroke-linecap="round" stroke-linejoin="round"/>
<path d="M90.4304 72.9213L105.288 83.6624L114.042 61.7044L90.4304 72.9213Z" fill="#ED7621"/>
<path d="M89.2942 76.7323L104.155 87.7109C104.155 87.7109 82.9635 140.934 82.9399 139.035C82.9162 137.135 89.2942 76.7323 89.2942 76.7323Z" fill="#ED7621"/>
<path d="M118.101 63.0744L109.096 83.8477L126.084 74.8504L118.101 63.0744Z" fill="#ED7621"/>
<path d="M108.207 88.8516C108.207 88.8516 85.7839 138.528 87.9036 137.077C90.0233 135.626 125.195 79.8545 125.195 79.8545L108.207 88.8516Z" fill="url(#paint6_linear_6_65)"/>
<path d="M115.367 53.1327L116.622 58.5795L120.134 54.4987L115.367 53.1327Z" fill="url(#paint7_linear_6_65)"/>
<path d="M45.9748 147.889L33.4928 119.997L44.6944 120.772L50.6641 148.958L45.9748 147.889Z" fill="#E08606" stroke="#E17206" stroke-width="0.5256" stroke-linecap="round" stroke-linejoin="round"/>
<path d="M33.4927 119.997L44.6944 120.772L41.7349 107.972L37.1152 103.843L33.4927 119.997Z" fill="#E24106" stroke="#E17206" stroke-width="0.5256" stroke-linecap="round" stroke-linejoin="round"/>
<path d="M44.6933 120.77L50.8866 109.82L42.5339 101.731L41.7337 107.97L44.6933 120.77Z" fill="#E08606" stroke="#E17206" stroke-width="0.5256" stroke-linecap="round" stroke-linejoin="round"/>
<path d="M37.113 103.842L41.7327 107.971L42.5328 101.732L37.113 103.842Z" fill="#E64706" stroke="#E17206" stroke-width="0.5256" stroke-linecap="round" stroke-linejoin="round"/>
<path d="M44.6933 120.77L50.6631 148.956L53.0608 141.345L50.8857 109.819L44.6933 120.77Z" fill="#ED7621" stroke="#E17206" stroke-width="0.5256" stroke-linecap="round" stroke-linejoin="round"/>
<path d="M34.3075 119.162L43.2847 119.437L40.8026 108.126L34.3075 119.162Z" fill="#ED7621"/>
<path d="M34.8874 121.02L43.931 121.39C43.931 121.39 49.9579 148.8 49.4265 148.036C48.8951 147.273 34.8874 121.02 34.8874 121.02Z" fill="#ED7621"/>
<path d="M42.8171 107.563L44.8716 118.463L49.2903 110.147L42.8171 107.563Z" fill="#ED7621"/>
<path d="M45.8824 120.736C45.8824 120.736 50.4353 147.045 50.8963 145.874C51.3573 144.704 50.3011 112.419 50.3011 112.419L45.8824 120.736Z" fill="url(#paint8_linear_6_65)"/>
<path d="M38.9825 104.285L40.9878 106.149L41.2911 103.529L38.9825 104.285Z" fill="url(#paint9_linear_6_65)"/>
<path d="M80.5135 102.07L78.2922 111.144L68.4072 146.207L63.8128 138.441L67.5085 101.155L76.8825 97.4242L80.5135 102.07Z" fill="#E08606" stroke="#E17206" stroke-width="0.588655" stroke-linecap="round" stroke-linejoin="round"/>
<path d="M67.5093 101.155L78.2611 111.087L80.5508 102.402L76.878 97.2349L67.5093 101.155Z" fill="#E24106" stroke="#E17206" stroke-width="0.588655" stroke-linecap="round" stroke-linejoin="round"/>
<path d="M80.4844 102.351L87.0535 101.914L90.4899 109.055L78.2608 111.087L80.4844 102.351Z" fill="#E08606" stroke="#E17206" stroke-width="0.588655" stroke-linecap="round" stroke-linejoin="round"/>
<path d="M78.2625 111.087L68.409 146.208L76.8991 143.014L90.4912 109.056L78.2625 111.087Z" fill="#DFAA05" stroke="#E17206" stroke-width="0.588655" stroke-linecap="round" stroke-linejoin="round"/>
<path d="M76.8775 97.2351L80.4839 102.351L87.053 101.914L84.2752 97.3604L76.8775 97.2351Z" fill="#E64706" stroke="#E17206" stroke-width="0.588655" stroke-linecap="round" stroke-linejoin="round"/>
<path d="M68.1091 103.078C77.2318 111.939 76.7043 112.088 76.7043 112.088L68.0933 142.726L68.1091 103.078Z" fill="#ED7621"/>
<path d="M69.8844 101.291C69.8844 101.291 77.0689 108.851 77.5648 109.05C78.0606 109.248 79.2564 102.318 79.2564 102.318L69.8844 101.291Z" fill="#ED7621"/>
<path d="M81.7433 103.232L79.7178 110.036L88.7057 107.768L81.7433 103.232Z" fill="#ED7621"/>
<path d="M78.9975 112.286L70.42 143.753L89.3056 110.23L78.9975 112.286Z" fill="url(#paint10_linear_6_65)"/>
<path d="M77.9087 97.5979L85.7375 100.893L81.1163 101.223L77.9087 97.5979Z" fill="url(#paint11_linear_6_65)"/>
<defs>
<linearGradient id="paint0_linear_6_65" x1="54.646" y1="41.6323" x2="45.6521" y2="21.7978" gradientUnits="userSpaceOnUse">
<stop stop-color="#F8190E"/>
<stop offset="1" stop-color="#F8190E" stop-opacity="0"/>
</linearGradient>
<linearGradient id="paint1_linear_6_65" x1="-17.442" y1="80.5732" x2="76.5748" y2="97.8448" gradientUnits="userSpaceOnUse">
<stop stop-color="#F8190E"/>
<stop offset="1" stop-color="#F8190E" stop-opacity="0"/>
</linearGradient>
<linearGradient id="paint2_linear_6_65" x1="61.5929" y1="8.8892" x2="62.4233" y2="4.57965" gradientUnits="userSpaceOnUse">
<stop stop-color="#F81009"/>
<stop offset="1" stop-color="#F8190E"/>
</linearGradient>
<linearGradient id="paint3_linear_6_65" x1="20.0106" y1="90.3209" x2="28.086" y2="68.069" gradientUnits="userSpaceOnUse">
<stop stop-color="#F81009"/>
<stop offset="1" stop-color="#F81009" stop-opacity="0"/>
</linearGradient>
<linearGradient id="paint4_linear_6_65" x1="-6.95489" y1="90.6998" x2="36.5327" y2="90.2403" gradientUnits="userSpaceOnUse">
<stop stop-color="#F81009"/>
<stop offset="1" stop-color="#F81009" stop-opacity="0"/>
</linearGradient>
<linearGradient id="paint5_linear_6_65" x1="19.8854" y1="66.9495" x2="19.6178" y2="61.1863" gradientUnits="userSpaceOnUse">
<stop stop-color="#F81009"/>
<stop offset="1" stop-color="#F81009" stop-opacity="0"/>
</linearGradient>
<linearGradient id="paint6_linear_6_65" x1="82.373" y1="87.704" x2="110.473" y2="107.598" gradientUnits="userSpaceOnUse">
<stop stop-color="#F81009"/>
<stop offset="1" stop-color="#F81009" stop-opacity="0"/>
</linearGradient>
<linearGradient id="paint7_linear_6_65" x1="116.799" y1="59.521" x2="118.257" y2="53.7198" gradientUnits="userSpaceOnUse">
<stop stop-color="#F81009"/>
<stop offset="1" stop-color="#F81009" stop-opacity="0"/>
</linearGradient>
<linearGradient id="paint8_linear_6_65" x1="35.098" y1="127.365" x2="51.9613" y2="127.714" gradientUnits="userSpaceOnUse">
<stop stop-color="#F81009"/>
<stop offset="1" stop-color="#F81009" stop-opacity="0"/>
</linearGradient>
<linearGradient id="paint9_linear_6_65" x1="41.3186" y1="106.476" x2="40.3158" y2="103.722" gradientUnits="userSpaceOnUse">
<stop stop-color="#F81009"/>
<stop offset="1" stop-color="#F81009" stop-opacity="0"/>
</linearGradient>
<linearGradient id="paint10_linear_6_65" x1="57.9451" y1="104.834" x2="84.3681" y2="120.046" gradientUnits="userSpaceOnUse">
<stop stop-color="#F81009"/>
<stop offset="1" stop-color="#F81009" stop-opacity="0"/>
</linearGradient>
<linearGradient id="paint11_linear_6_65" x1="81.5002" y1="101.991" x2="83.164" y2="98.9037" gradientUnits="userSpaceOnUse">
<stop stop-color="#F81009"/>
<stop offset="1" stop-color="#F81009" stop-opacity="0"/>
</linearGradient>
</defs>
</svg>
